<svg width="162" height="209" viewBox="0 0 162 209" fill="none" xmlns="http://www.w3.org/2000/svg">
<path fill-rule="evenodd" clip-rule="evenodd" d="M147.772 38.3098C155.108 50.3654 159.334 64.5227 159.334 79.667C159.334 100.537 152.18 118.661 139.048 132.865L119.623 110.084C126.493 101.513 129.731 91.5052 129.731 79.667C129.731 62.4859 121.076 47.3262 107.889 38.3098H147.772Z" fill="url(#paint0_linear_15_13)"/>
<path d="M97.5159 81.8437L75.749 103.175L102.305 130.602L75.749 129.731L56.5941 144.968C59.3512 149.466 67.8258 157.767 70.9602 158.463C74.0947 159.16 92.4369 159.334 102.305 159.334L75.749 187.196L97.5159 208.092L161.075 144.968L97.5159 81.8437Z" fill="#7CE200"/>
<path fill-rule="evenodd" clip-rule="evenodd" d="M79.667 159.334C87.5296 159.334 95.1262 158.195 102.301 156.073L79.8401 129.731C79.7824 129.731 79.7247 129.731 79.667 129.731C52.0174 129.731 29.603 107.317 29.603 79.667C29.603 52.0174 52.0174 29.603 79.667 29.603C90.1354 29.603 99.8535 32.8161 107.889 38.3098H147.772C133.793 15.3401 108.521 0 79.667 0C35.6682 0 0 35.6682 0 79.667C0 123.666 35.6682 159.334 79.667 159.334Z" fill="#7CE200"/>
<defs>
<linearGradient id="paint0_linear_15_13" x1="133.611" y1="38.3098" x2="133.611" y2="132.865" gradientUnits="userSpaceOnUse">
<stop stop-color="#7CE200"/>
<stop offset="1" stop-color="#7CE200" stop-opacity="0"/>
</linearGradient>
</defs>
</svg>
