<svg width="341" height="91" viewBox="0 0 341 91" fill="none" xmlns="http://www.w3.org/2000/svg">
<path d="M93.9335 66.1941C87.1455 66.1941 81.8976 64.4828 78.1898 61.0603C74.5391 57.6378 72.7137 52.4754 72.7137 45.5733V20.4176H86.3184V44.5465C86.3184 46.3148 86.5465 47.912 87.0029 49.3381C87.5162 50.7071 88.3434 51.8194 89.4842 52.6751C90.6251 53.4737 92.1082 53.873 93.9335 53.873C95.987 53.873 97.5272 53.4166 98.5539 52.5039C99.5807 51.5913 100.237 50.4219 100.522 48.9958C100.864 47.5127 101.035 46.0296 101.035 44.5465V20.4176H114.554V45.5733C114.554 52.8177 112.7 58.0656 108.993 61.317C105.342 64.5684 100.322 66.1941 93.9335 66.1941Z" fill="white"/>
<path d="M119.764 65.5096V20.4176H133.369V65.5096H119.764ZM126.609 16.6528C124.1 16.6528 122.075 15.9112 120.534 14.4281C119.051 12.945 118.31 11.0056 118.31 8.60982C118.31 6.157 119.108 4.16052 120.706 2.62037C122.303 1.08023 124.299 0.310158 126.695 0.310158C128.977 0.310158 130.916 1.05171 132.513 2.53481C134.111 4.01791 134.909 6.0144 134.909 8.52426C134.909 10.9771 134.139 12.945 132.599 14.4281C131.059 15.9112 129.062 16.6528 126.609 16.6528Z" fill="white"/>
<path d="M159.102 66.1941C154.538 66.1941 150.602 65.2814 147.294 63.4561C143.985 61.5737 141.418 58.8927 139.593 55.4131C137.825 51.9335 136.941 47.8265 136.941 43.0919C136.941 38.2433 137.853 34.0792 139.679 30.5997C141.561 27.063 144.185 24.3535 147.55 22.4711C150.916 20.5317 154.909 19.562 159.529 19.562C163.351 19.562 166.745 20.275 169.711 21.701C172.735 23.0701 175.13 25.0665 176.899 27.6905C178.724 30.3144 179.751 33.5373 179.979 37.3592H166.802C166.346 35.5338 165.462 34.1933 164.15 33.3377C162.895 32.425 161.355 31.9687 159.529 31.9687C157.191 31.9687 155.337 32.5676 153.968 33.7655C152.656 34.9064 151.715 36.3324 151.144 38.0437C150.631 39.755 150.374 41.4377 150.374 43.0919C150.374 44.9173 150.659 46.6571 151.23 48.3113C151.857 49.9655 152.827 51.306 154.139 52.3328C155.508 53.3596 157.248 53.873 159.358 53.873C161.298 53.873 162.923 53.4166 164.235 52.5039C165.604 51.5913 166.489 50.2508 166.888 48.4824H180.407C180.236 52.3613 179.152 55.6127 177.155 58.2367C175.216 60.8606 172.678 62.8571 169.54 64.2261C166.403 65.5381 162.923 66.1941 159.102 66.1941Z" fill="white"/>
<path d="M183.609 65.5096V4.93059H197.214V37.0169H202.348L212.616 20.4176H227.846L213.642 41.8941L228.958 65.5096H213.3L202.776 49.0814H197.214V65.5096H183.609Z" fill="white"/>
<path d="M230.863 65.5096V4.93059H274.757V17.7651H244.725V31.1986H269.88V43.862H244.725V65.5096H230.863Z" fill="#7CE200"/>
<path d="M277.536 65.5096V20.4176H291.14V65.5096H277.536ZM284.381 16.6528C281.871 16.6528 279.846 15.9112 278.306 14.4281C276.823 12.945 276.081 11.0056 276.081 8.60982C276.081 6.157 276.88 4.16052 278.477 2.62037C280.074 1.08023 282.07 0.310158 284.466 0.310158C286.748 0.310158 288.687 1.05171 290.285 2.53481C291.882 4.01791 292.68 6.0144 292.68 8.52426C292.68 10.9771 291.91 12.945 290.37 14.4281C288.83 15.9112 286.833 16.6528 284.381 16.6528Z" fill="#7CE200"/>
<path d="M292.316 65.5096L307.974 42.493L293.172 20.4176H308.744L316.787 33.5944L324.745 20.4176H339.975L325.001 42.7497L341.002 65.5096H325.258L316.359 51.5627L307.375 65.5096H292.316Z" fill="#7CE200"/>
<path fill-rule="evenodd" clip-rule="evenodd" d="M64.3918 16.6936C67.5888 21.9468 69.4301 28.1159 69.4301 34.715C69.4301 43.809 66.3127 51.7069 60.5904 57.8963L52.1261 47.9692C55.1195 44.2346 56.5305 39.8736 56.5305 34.715C56.5305 27.2284 52.7592 20.6225 47.0127 16.6936H64.3918Z" fill="url(#paint0_linear_15_3)"/>
<path d="M42.4927 35.6635L33.0077 44.9588L44.5794 56.9099L33.0077 56.5305L24.6609 63.17C25.8624 65.1302 29.5552 68.7471 30.921 69.0507C32.2868 69.3542 40.2795 69.4301 44.5794 69.4301L33.0077 81.5708L42.4927 90.6764L70.1888 63.17L42.4927 35.6635Z" fill="white"/>
<path fill-rule="evenodd" clip-rule="evenodd" d="M34.715 69.4301C38.1412 69.4301 41.4514 68.9337 44.5777 68.009L34.7905 56.5304L34.715 56.5305C22.6667 56.5305 12.8996 46.7634 12.8996 34.715C12.8996 22.6667 22.6667 12.8996 34.715 12.8996C39.2767 12.8996 43.5114 14.2997 47.0127 16.6936H64.3918C58.3007 6.68448 47.2884 0 34.715 0C15.5425 0 0 15.5425 0 34.715C0 53.8876 15.5425 69.4301 34.715 69.4301Z" fill="white"/>
<defs>
<linearGradient id="paint0_linear_15_3" x1="58.2214" y1="16.6936" x2="58.2214" y2="57.8963" gradientUnits="userSpaceOnUse">
<stop stop-color="white"/>
<stop offset="1" stop-color="white" stop-opacity="0"/>
</linearGradient>
</defs>
</svg>
