<svg width="189" height="136" viewBox="0 0 189 136" fill="none" xmlns="http://www.w3.org/2000/svg">
<path fill-rule="evenodd" clip-rule="evenodd" d="M0 70.5801C0 95.4842 20.1888 115.673 45.0928 115.673C51.8234 115.673 58.2095 114.198 63.9458 111.555L85.077 134.607C86.8893 136.584 90.1857 135.302 90.1857 132.62V70.5801C90.1857 45.6761 69.9969 25.4873 45.0928 25.4873C20.1888 25.4873 0 45.6761 0 70.5801ZM45.0928 96.0674C59.1691 96.0674 70.5801 84.6564 70.5801 70.5801C70.5801 56.5039 59.1691 45.0929 45.0928 45.0929C31.0166 45.0929 19.6056 56.5039 19.6056 70.5801C19.6056 84.6564 31.0166 96.0674 45.0928 96.0674Z" fill="#7436F5"/>
<path fill-rule="evenodd" clip-rule="evenodd" d="M188.214 45.0928C188.214 69.9969 168.025 90.1857 143.121 90.1857C136.39 90.1857 130.004 88.7111 124.268 86.0674L103.137 109.12C101.324 111.097 98.0279 109.814 98.0279 107.132V45.0928C98.0279 20.1888 118.217 0 143.121 0C168.025 0 188.214 20.1888 188.214 45.0928ZM143.121 70.5801C129.045 70.5801 117.634 59.1691 117.634 45.0928C117.634 31.0166 129.045 19.6056 143.121 19.6056C157.197 19.6056 168.608 31.0166 168.608 45.0928C168.608 59.1691 157.197 70.5801 143.121 70.5801Z" fill="#7436F5"/>
</svg>
