<svg width="680" height="136" viewBox="0 0 680 136" fill="none" xmlns="http://www.w3.org/2000/svg">
<path d="M247.026 99.4687C242.184 99.4687 237.921 98.6266 234.237 96.9424C230.552 95.2056 227.447 92.9161 224.921 90.074C222.447 87.1792 220.579 83.9424 219.316 80.3634C218.105 76.7845 217.5 73.1266 217.5 69.3897C217.5 65.6529 218.105 62.0213 219.316 58.4949C220.579 54.916 222.447 51.7055 224.921 48.8633C227.447 46.0212 230.552 43.7581 234.237 42.0739C237.921 40.337 242.184 39.4686 247.026 39.4686C251.921 39.4686 256.21 40.337 259.895 42.0739C263.579 43.7581 266.658 46.0212 269.131 48.8633C271.605 51.7055 273.447 54.916 274.658 58.4949C275.921 62.0213 276.553 65.6529 276.553 69.3897C276.553 73.0213 275.974 76.6002 274.816 80.1266C273.658 83.6529 271.895 86.8108 269.526 89.6003L277.658 98.6792H264.71L262.105 95.7582C260 96.9161 257.684 97.8371 255.158 98.5213C252.684 99.1529 249.974 99.4687 247.026 99.4687ZM247.026 88.495C249.605 88.495 251.947 87.995 254.052 86.995L245.131 77.2055L252.71 70.8897L261.158 80.2845C263 77.0739 263.921 73.4423 263.921 69.3897C263.921 66.1792 263.289 63.1265 262.026 60.2318C260.763 57.337 258.868 54.9686 256.342 53.1265C253.816 51.2844 250.71 50.3633 247.026 50.3633C243.342 50.3633 240.237 51.2844 237.71 53.1265C235.237 54.9686 233.368 57.337 232.105 60.2318C230.842 63.1265 230.21 66.1792 230.21 69.3897C230.21 72.6002 230.842 75.6792 232.105 78.6266C233.368 81.5213 235.237 83.8897 237.71 85.7318C240.237 87.574 243.342 88.495 247.026 88.495Z" fill="#191B27"/>
<path d="M291.645 99.4687C288.698 99.4687 286.25 98.8371 284.303 97.574C282.408 96.3108 280.987 94.6266 280.04 92.5213C279.092 90.3634 278.619 87.9424 278.619 85.2582V56.837H290.54V82.8897C290.54 84.8897 291.066 86.5213 292.119 87.7845C293.171 88.995 294.724 89.6003 296.777 89.6003C298.513 89.6003 299.882 89.1792 300.882 88.3371C301.935 87.495 302.698 86.4161 303.171 85.1003C303.645 83.7845 303.882 82.3897 303.882 80.916V56.837H315.882V98.6792H303.882V92.7582H303.408C302.514 94.3898 301.119 95.9161 299.224 97.3371C297.382 98.7582 294.856 99.4687 291.645 99.4687Z" fill="#191B27"/>
<path d="M326.61 51.1528C324.505 51.1528 322.794 50.4949 321.479 49.1791C320.163 47.8107 319.505 46.2054 319.505 44.3633C319.505 42.416 320.163 40.7844 321.479 39.4686C322.794 38.1002 324.505 37.416 326.61 37.416C328.61 37.416 330.294 38.1002 331.663 39.4686C333.031 40.7844 333.715 42.416 333.715 44.3633C333.715 46.2054 333.031 47.8107 331.663 49.1791C330.294 50.4949 328.61 51.1528 326.61 51.1528ZM320.61 98.6792V56.837H332.61V98.6792H320.61Z" fill="#191B27"/>
<path d="M358.576 99.4687C354.892 99.4687 351.681 98.8635 348.944 97.6529C346.207 96.3898 343.944 94.7319 342.155 92.6792C340.365 90.6266 339.023 88.3108 338.128 85.7318C337.234 83.1003 336.786 80.4424 336.786 77.7581C336.786 75.0739 337.234 72.4423 338.128 69.8634C339.023 67.2844 340.365 64.9686 342.155 62.916C343.944 60.8107 346.207 59.1528 348.944 57.9423C351.681 56.6792 354.892 56.0476 358.576 56.0476C362.313 56.0476 365.392 56.6002 367.813 57.7055C370.234 58.7581 372.155 60.1002 373.576 61.7318C375.05 63.3107 376.129 64.916 376.813 66.5476C377.497 68.1265 377.918 69.4687 378.076 70.5739C378.286 71.6266 378.392 72.1529 378.392 72.1529H367.181C367.181 72.1529 367.076 71.8371 366.865 71.2055C366.708 70.5213 366.339 69.7581 365.76 68.916C365.234 68.0213 364.418 67.2581 363.313 66.6265C362.207 65.9423 360.734 65.6002 358.892 65.6002C356.629 65.6002 354.734 66.1792 353.207 67.3371C351.734 68.4423 350.629 69.916 349.892 71.7581C349.155 73.6002 348.786 75.6002 348.786 77.7581C348.786 79.916 349.155 81.9161 349.892 83.7582C350.629 85.6003 351.734 87.1003 353.207 88.2582C354.734 89.3634 356.629 89.9161 358.892 89.9161C360.734 89.9161 362.207 89.6003 363.313 88.9687C364.418 88.2845 365.234 87.5213 365.76 86.6792C366.339 85.7845 366.708 85.0213 366.865 84.3897C367.076 83.7055 367.181 83.3634 367.181 83.3634H378.392C378.392 83.3634 378.286 83.9161 378.076 85.0213C377.918 86.074 377.497 87.4161 376.813 89.0476C376.129 90.6266 375.05 92.2319 373.576 93.8634C372.155 95.4424 370.234 96.7845 367.813 97.8898C365.392 98.9424 362.313 99.4687 358.576 99.4687Z" fill="#191B27"/>
<path d="M382.253 98.6792V38.6791H394.253V73.2581L408.069 56.837H421.727L405.305 75.9424L422.437 98.6792H408.305L394.253 79.8897V98.6792H382.253Z" fill="#191B27"/>
<path d="M436.656 98.6792V40.2581H460.735C465.524 40.2581 469.498 41.2054 472.656 43.1002C475.866 44.9949 478.261 47.4423 479.84 50.4423C481.472 53.3897 482.287 56.4686 482.287 59.6792C482.287 62.995 481.472 66.1529 479.84 69.1529C478.261 72.1002 475.866 74.5213 472.656 76.416C469.498 78.3108 465.524 79.2581 460.735 79.2581H448.814V98.6792H436.656ZM460.735 50.916H448.814V68.6792H460.735C462.787 68.6792 464.498 68.2581 465.866 67.416C467.235 66.5213 468.261 65.416 468.945 64.1002C469.682 62.7318 470.05 61.2844 470.05 59.7581C470.05 58.2844 469.682 56.8634 468.945 55.4949C468.261 54.1265 467.235 53.0213 465.866 52.1791C464.498 51.337 462.787 50.916 460.735 50.916Z" fill="#191B27"/>
<path d="M503.236 99.4687C498.551 99.4687 494.578 98.4687 491.314 96.4687C488.051 94.4161 485.551 91.7582 483.814 88.495C482.13 85.1792 481.288 81.6003 481.288 77.7581C481.288 73.916 482.13 70.3634 483.814 67.1002C485.551 63.7844 488.051 61.1265 491.314 59.1265C494.578 57.0739 498.551 56.0476 503.236 56.0476C507.92 56.0476 511.893 57.0739 515.157 59.1265C518.42 61.1265 520.893 63.7844 522.578 67.1002C524.315 70.3634 525.183 73.916 525.183 77.7581C525.183 81.6003 524.315 85.1792 522.578 88.495C520.893 91.7582 518.42 94.4161 515.157 96.4687C511.893 98.4687 507.92 99.4687 503.236 99.4687ZM503.236 89.6792C505.341 89.6792 507.104 89.1266 508.525 88.0213C509.999 86.9161 511.13 85.4687 511.92 83.6792C512.709 81.8371 513.104 79.8634 513.104 77.7581C513.104 75.6002 512.709 73.6266 511.92 71.8371C511.13 70.0476 509.999 68.6002 508.525 67.495C507.104 66.3897 505.341 65.8371 503.236 65.8371C501.13 65.8371 499.341 66.3897 497.867 67.495C496.393 68.6002 495.262 70.0476 494.472 71.8371C493.736 73.6266 493.367 75.6002 493.367 77.7581C493.367 79.8634 493.736 81.8371 494.472 83.6792C495.262 85.4687 496.393 86.9161 497.867 88.0213C499.341 89.1266 501.13 89.6792 503.236 89.6792Z" fill="#191B27"/>
<path d="M549.129 99.4687C545.445 99.4687 542.235 98.8635 539.498 97.6529C536.761 96.3898 534.498 94.7319 532.708 92.6792C530.919 90.6266 529.577 88.3108 528.682 85.7318C527.787 83.1003 527.34 80.4424 527.34 77.7581C527.34 75.0739 527.787 72.4423 528.682 69.8634C529.577 67.2844 530.919 64.9686 532.708 62.916C534.498 60.8107 536.761 59.1528 539.498 57.9423C542.235 56.6792 545.445 56.0476 549.129 56.0476C552.866 56.0476 555.945 56.6002 558.366 57.7055C560.787 58.7581 562.708 60.1002 564.129 61.7318C565.603 63.3107 566.682 64.916 567.366 66.5476C568.05 68.1265 568.471 69.4687 568.629 70.5739C568.84 71.6266 568.945 72.1529 568.945 72.1529H557.735C557.735 72.1529 557.629 71.8371 557.419 71.2055C557.261 70.5213 556.893 69.7581 556.314 68.916C555.787 68.0213 554.971 67.2581 553.866 66.6265C552.761 65.9423 551.287 65.6002 549.445 65.6002C547.182 65.6002 545.287 66.1792 543.761 67.3371C542.287 68.4423 541.182 69.916 540.445 71.7581C539.708 73.6002 539.34 75.6002 539.34 77.7581C539.34 79.916 539.708 81.9161 540.445 83.7582C541.182 85.6003 542.287 87.1003 543.761 88.2582C545.287 89.3634 547.182 89.9161 549.445 89.9161C551.287 89.9161 552.761 89.6003 553.866 88.9687C554.971 88.2845 555.787 87.5213 556.314 86.6792C556.893 85.7845 557.261 85.0213 557.419 84.3897C557.629 83.7055 557.735 83.3634 557.735 83.3634H568.945C568.945 83.3634 568.84 83.9161 568.629 85.0213C568.471 86.074 568.05 87.4161 567.366 89.0476C566.682 90.6266 565.603 92.2319 564.129 93.8634C562.708 95.4424 560.787 96.7845 558.366 97.8898C555.945 98.9424 552.866 99.4687 549.129 99.4687Z" fill="#191B27"/>
<path d="M572.806 98.6792V38.6791H584.806V73.2581L598.622 56.837H612.28L595.859 75.9424L612.99 98.6792H598.859L584.806 79.8897V98.6792H572.806Z" fill="#191B27"/>
<path d="M631.509 99.4687C627.825 99.4687 624.641 98.8635 621.957 97.6529C619.272 96.3898 617.062 94.7319 615.325 92.6792C613.588 90.574 612.272 88.2319 611.378 85.6529C610.536 83.0739 610.114 80.416 610.114 77.6792C610.114 75.0476 610.509 72.4687 611.299 69.9423C612.141 67.3634 613.404 65.0213 615.088 62.916C616.825 60.8107 619.009 59.1528 621.641 57.9423C624.325 56.6792 627.483 56.0476 631.115 56.0476C634.957 56.0476 638.351 56.8897 641.299 58.5739C644.299 60.2581 646.641 62.7581 648.325 66.0739C650.009 69.3371 650.851 73.3108 650.851 77.995V80.916H622.193C622.351 83.4424 623.22 85.6266 624.799 87.4687C626.43 89.3108 628.667 90.2319 631.509 90.2319C633.141 90.2319 634.457 89.995 635.457 89.5213C636.509 88.995 637.325 88.4161 637.904 87.7845C638.483 87.1003 638.878 86.495 639.088 85.9687C639.299 85.4424 639.404 85.1792 639.404 85.1792H650.457C650.457 85.1792 650.325 85.6792 650.062 86.6792C649.851 87.6266 649.378 88.8108 648.641 90.2319C647.904 91.6529 646.825 93.074 645.404 94.495C644.036 95.9161 642.22 97.1003 639.957 98.0477C637.693 98.995 634.878 99.4687 631.509 99.4687ZM622.193 73.6529H639.325C639.167 70.7581 638.299 68.6002 636.72 67.1792C635.141 65.7581 633.193 65.0476 630.878 65.0476C628.562 65.0476 626.588 65.8108 624.957 67.3371C623.325 68.8108 622.404 70.916 622.193 73.6529Z" fill="#191B27"/>
<path d="M672.672 99.4687C669.409 99.4687 666.804 98.995 664.857 98.0477C662.909 97.0477 661.436 95.8108 660.436 94.3371C659.436 92.8108 658.778 91.2055 658.462 89.5213C658.146 87.8371 657.988 86.2845 657.988 84.8634V66.3897H650.883V56.837H657.988V46.4949H669.988V56.837H678.909V66.3897H669.988V84.5476C669.988 86.2845 670.436 87.6266 671.33 88.574C672.278 89.5213 673.83 89.995 675.988 89.995C676.936 89.995 677.804 89.9161 678.593 89.7582C679.383 89.6003 679.778 89.5213 679.778 89.5213V98.7582C679.778 98.7582 679.067 98.8635 677.646 99.074C676.225 99.3371 674.567 99.4687 672.672 99.4687Z" fill="#191B27"/>
<path fill-rule="evenodd" clip-rule="evenodd" d="M0.940674 70.5801C0.940674 95.4842 21.1294 115.673 46.0335 115.673C52.7641 115.673 59.1502 114.198 64.8865 111.555L86.0177 134.607C87.83 136.584 91.1264 135.302 91.1264 132.62V70.5801C91.1264 45.6761 70.9376 25.4873 46.0335 25.4873C21.1294 25.4873 0.940674 45.6761 0.940674 70.5801ZM46.0335 96.0674C60.1097 96.0674 71.5208 84.6564 71.5208 70.5801C71.5208 56.5039 60.1097 45.0929 46.0335 45.0929C31.9573 45.0929 20.5463 56.5039 20.5463 70.5801C20.5463 84.6564 31.9573 96.0674 46.0335 96.0674Z" fill="#7436F5"/>
<path fill-rule="evenodd" clip-rule="evenodd" d="M189.154 45.0928C189.154 69.9969 168.966 90.1857 144.061 90.1857C137.331 90.1857 130.945 88.7111 125.208 86.0674L104.077 109.12C102.265 111.097 98.9686 109.814 98.9686 107.132V45.0928C98.9686 20.1888 119.157 0 144.061 0C168.966 0 189.154 20.1888 189.154 45.0928ZM144.061 70.5801C129.985 70.5801 118.574 59.1691 118.574 45.0928C118.574 31.0166 129.985 19.6056 144.061 19.6056C158.138 19.6056 169.549 31.0166 169.549 45.0928C169.549 59.1691 158.138 70.5801 144.061 70.5801Z" fill="#7436F5"/>
</svg>
